<?xml version="1.0" encoding="utf-8"?>
<!-- Generator: Adobe Illustrator 18.0.0, SVG Export Plug-In . SVG Version: 6.00 Build 0)  -->
<!DOCTYPE svg PUBLIC "-//W3C//DTD SVG 1.1//EN" "http://www.w3.org/Graphics/SVG/1.1/DTD/svg11.dtd">
<svg version="1.1" id="Layer_1" xmlns="http://www.w3.org/2000/svg" xmlns:xlink="http://www.w3.org/1999/xlink" x="0px" y="0px"
	 width="143.8px" height="50.1px" viewBox="-21.6 24.9 143.8 50.1" enable-background="new -21.6 24.9 143.8 50.1"
	 xml:space="preserve">
<g>
	<path d="M28.8,38.1c-0.4,0.3-0.9,0.5-1.5,0.8c-0.5,0.3-1.1,0.4-1.8,0.6c-0.6,0.3-1.4,0.4-2.3,0.5c-0.3,1.1-0.4,2.1-0.5,3.3
		s0,2,0.1,3c0.1,0.9,0.4,1.8,0.9,2.5c0.4,0.8,1,1.4,1.6,1.9c1,0.6,1.9,1.3,2.9,1.9c1,0.6,1.8,1.1,2.6,1.6c0.8,0.5,1.4,1.1,2,1.6
		c0.5,0.6,0.9,1.3,1.1,2c0.1,0.5,0.1,1,0.1,1.5s-0.1,1.1-0.4,1.8c-0.4,0.8-0.9,1.4-1.5,1.9c-0.6,0.5-1.4,0.9-2.4,1.3
		c-1,0.4-2.3,0.5-3.9,0.5s-3.2-0.3-4.4-0.8c-0.6-0.1-1.1-0.4-1.6-0.8c-0.5-0.3-1-0.6-1.5-1.1c-0.5-0.4-0.9-0.9-1.1-1.5
		c-0.4-0.6-0.5-1.3-0.6-2c-0.1-1-0.1-1.9,0.1-2.5c0.3-0.6,0.4-1.3,0.8-1.6c0.3-0.4,0.6-0.6,1-0.8c0.4-0.1,0.8-0.1,1.1-0.1
		c0.4,0.1,0.8,0.3,1,0.5s0.5,0.6,0.5,1c0,0,0,0.1,0,0.3s0,0.3-0.1,0.4s-0.3,0.5-0.5,0.9s-0.4,0.9-0.5,1.5C20,58.6,20,59.3,20,59.8
		c0,0.6,0.3,1.1,0.8,1.6c0.5,0.5,1,0.9,1.9,1.1c0.9,0.3,2,0.5,3.5,0.5c1.3,0,2.3-0.1,3-0.5c0.8-0.4,1.3-0.8,1.6-1.3s0.6-1.1,0.6-1.8
		c0-0.4,0-0.8-0.3-1.1c-0.1-0.4-0.4-0.8-0.8-1.1c-0.4-0.4-0.8-0.6-1.1-1c-0.4-0.4-0.9-0.6-1.4-0.9c-1-0.6-2.3-1.3-3.7-1.9
		c-1.3-0.5-2.3-1.3-3-2.3c-0.8-1-1.4-2-1.6-3.2c-0.4-1.1-0.5-2.5-0.6-3.9c0-1.4,0.1-2.8,0.3-4.2c-1.6,0.1-3.8,0.3-6.3,0.3
		s-5.6-0.1-9.1-0.4c-3.9-0.3-7.3-0.4-10-0.5c-2.8,0-4.9,0.1-6.7,0.4c-1.8,0.3-3.2,0.8-4.2,1.4c-1,0.6-1.8,1.6-2.4,2.8
		c-0.1,0.1-0.1,0.3-0.4,0.3c-0.1,0-0.3,0-0.5-0.1c-0.3-0.1-0.4-0.3-0.6-0.5c-0.1-0.3-0.4-0.5-0.5-0.9c-0.3-0.5-0.3-1.1,0-1.6
		c0.1-0.5,0.5-1,1-1.4c0.4-0.3,0.8-0.5,1.3-0.8s1.3-0.5,2-0.8c0.9,0.5,1.8,0.4,2.9,0.3s2.4-0.1,3.9-0.1c1.8,0.1,3.9,0.1,6.3,0.3
		s4.9,0.1,7.6,0.3c2.6,0.1,5.3,0.1,8.1,0.1s5.4-0.1,7.9-0.3c0.4-1.8,1-3.4,1.6-5c0.6-1.5,1.3-2.9,1.9-3.9c0.6-1,1.3-1.8,2-2.5
		c0.6-0.6,1.4-1.1,2.3-1.6s1.8-0.6,2.8-0.5c0.9,0.1,1.6,0.4,2.1,0.9s0.9,1,1.1,1.5c0.3,0.6,0.5,1.4,0.6,2.1c0.1,1,0,2-0.3,3
		c-0.3,0.9-0.8,1.8-1.5,2.8C31.5,36.3,30.3,37.2,28.8,38.1z M23.8,38.1c0.5-0.1,1.1-0.3,1.6-0.5c0.5-0.1,1-0.4,1.4-0.5
		c0.5-0.3,0.9-0.4,1.3-0.6c0.5-0.3,1-0.6,1.5-1.1c0.5-0.4,1-0.9,1.4-1.5c0.4-0.6,0.8-1.1,1-1.9c0.3-0.6,0.3-1.5,0.3-2.3
		c0-0.5-0.1-0.9-0.3-1.3c-0.1-0.4-0.4-0.6-0.6-0.9c-0.4-0.3-0.6-0.4-1.1-0.4c-0.6,0-1.1,0.3-1.6,0.8c-0.5,0.5-1,1-1.4,1.6
		c-0.5,0.6-0.9,1.5-1.3,2.4c-0.4,1-0.8,2-1.1,3C24.4,35.9,24,36.9,23.8,38.1z"/>
	<path d="M38.6,58.8c-0.6-0.4-1.1-0.9-1.4-1.5c-0.3-0.8-0.5-1.5-0.5-2.4s0-1.9,0.1-2.9c0.1-1,0.3-1.9,0.5-2.9
		c0.3-0.9,0.4-1.8,0.6-2.5c0.3-0.8,0.4-1.3,0.5-1.6c0.1-0.4,0.4-0.5,0.8-0.5c0.4,0,0.8,0,1.3,0.1c0.5,0,1,0.3,1.3,0.5
		c0.3,0.1,0.4,0.3,0.4,0.5c0.1,0.3,0.1,0.4,0,0.6c-0.1,0.4-0.3,1-0.5,1.8c-0.3,0.8-0.5,1.6-0.6,2.5c-0.1,0.9-0.4,1.9-0.5,2.9
		c-0.1,1-0.3,1.9-0.3,2.6c0.3-0.4,0.5-0.8,0.8-1.4c0.3-0.5,0.6-1.3,1-2.1c0.4-0.9,0.6-1.9,1-3c0.4-1.1,0.8-2.5,1.1-4
		c0-0.4,0.3-0.5,0.6-0.4c0.4,0,0.9,0,1.4,0.1c0.3,0.1,0.5,0.3,0.8,0.5c0.1,0.3,0.3,0.5,0.3,0.9c0,0.4,0,1,0,1.6c0,0.8,0,1.4,0,2.3
		c0,0.8,0,1.5,0.1,2.4c0,0.8,0.1,1.5,0.3,2.1c0.1,0.6,0.3,1.1,0.4,1.5c0.1,0.4,0.4,0.6,0.5,0.5c0.3,0,0.5-0.3,0.8-0.8
		c0.3-0.5,0.4-1,0.5-1.8c0.1-0.8,0.3-1.5,0.3-2.4s0-1.8-0.1-2.6c-0.1-0.9-0.3-1.6-0.6-2.5c-0.3-0.8-0.6-1.4-1.1-2
		c-0.1,0-0.1-0.1-0.1-0.3s0-0.3,0-0.5c0-0.1,0.1-0.4,0.3-0.5c0.1-0.3,0.4-0.3,0.6-0.1s0.6,0.3,1.3,0.5s1.3,0.4,2,0.5
		c0.8,0.1,1.6,0.3,2.4,0.1c0.9,0,1.6-0.1,2.4-0.5c0.1,0,0.3,0,0.4,0c0.1,0.1,0.1,0.1,0.1,0.3c0,0,0,0.3-0.1,0.5
		c0,0.3-0.1,0.5-0.4,0.6c-0.1,0.1-0.4,0.4-0.6,0.4c-0.3,0.1-0.5,0.1-0.9,0.3s-0.9,0.1-1.3,0.3c-0.5,0-1,0-1.5,0
		c-0.5,0-1.1-0.1-1.6-0.4c0.3,0.3,0.5,0.8,0.8,1.3c0.1,0.5,0.3,1.1,0.4,2c0,0.9,0,1.9-0.3,3.2c-0.3,1.5-0.6,2.6-1,3.4
		c-0.4,0.8-0.8,1.4-1.1,1.9c-0.5,0.5-0.9,0.8-1.4,0.9c-0.5,0.1-1,0.1-1.4-0.1c-0.4-0.3-0.8-0.4-1.1-0.8c-0.3-0.4-0.5-0.6-0.8-1.1
		c-0.3-0.4-0.4-0.9-0.5-1.4c-0.4-1.1-0.5-2.4-0.6-3.9c-0.3,1.3-0.6,2.3-0.9,3.2c-0.4,0.9-0.6,1.5-1,2s-0.6,0.9-0.9,1.1
		s-0.6,0.5-0.9,0.5c-0.1,0-0.3,0.1-0.5,0.1c-0.1,0-0.3,0-0.5,0C39,58.9,38.9,58.9,38.6,58.8z"/>
	<path d="M64.5,48.3c0.3,0.1,0.4,0.4,0.3,0.8c-0.1,0.4-0.3,0.9-0.5,1.8c-0.3,0.8-0.5,1.6-1,2.4c-0.4,0.9-0.9,1.5-1.5,2.1
		c-0.6,0.6-1.3,0.9-2,0.9c-1.1,0-2.1-0.3-2.9-0.8c-0.4-0.3-0.6-0.5-1-0.9c-0.4-0.4-0.6-0.9-0.8-1.5c-0.3-0.6-0.4-1.3-0.5-2
		c-0.1-0.8-0.1-1.8,0-2.8C54.7,47,55,46,55.4,45c0.1-0.4,0.4-0.8,0.6-1.1c0.3-0.4,0.5-0.8,0.9-1c0.4-0.3,0.8-0.5,1.1-0.6
		S59,42,59.5,42c0.6,0,1.3,0.3,1.5,0.6c0.4,0.4,0.6,0.9,0.6,1.4c0.1,0.5,0,1.1-0.1,1.8c-0.1,0.6-0.4,1.3-0.8,1.8
		c-0.4,0.5-0.9,1-1.4,1.4c-0.6,0.4-1.1,0.6-1.9,0.6c0,0.4,0,0.9,0.1,1.5c0,0.6,0.3,1.1,0.4,1.6c0.3,0.5,0.5,0.9,0.9,1.3
		c0.4,0.4,0.9,0.4,1.5,0.4c0.3,0,0.6-0.4,1-0.8c0.4-0.5,0.8-1,1-1.6c0.4-0.6,0.6-1.3,0.9-1.9c0.3-0.6,0.5-1.1,0.5-1.4
		c0-0.1,0.1-0.1,0.1-0.1c0.1,0,0.1,0,0.3,0C64.4,48.3,64.5,48.3,64.5,48.3z M59.7,44c0,0-0.1,0-0.3,0.1s-0.3,0.3-0.5,0.5
		c-0.1,0.3-0.4,0.6-0.6,1.1c-0.3,0.5-0.4,1.3-0.6,2.1c0.3-0.1,0.6-0.4,1-0.6c0.4-0.3,0.8-0.6,1-1.1c0.3-0.4,0.4-0.8,0.5-1
		c0-0.3,0-0.5,0-0.6s-0.1-0.3-0.3-0.4C59.8,44,59.7,44,59.7,44z"/>
	<path d="M74.5,48.3c0.3,0.1,0.4,0.4,0.3,0.8c-0.1,0.4-0.3,0.9-0.5,1.8c-0.3,0.8-0.5,1.6-1,2.4c-0.4,0.9-0.9,1.5-1.5,2.1
		c-0.6,0.6-1.3,0.9-2,0.9c-1.1,0-2.1-0.3-2.9-0.8c-0.4-0.3-0.6-0.5-1-0.9c-0.4-0.4-0.6-0.9-0.8-1.5c-0.3-0.6-0.4-1.3-0.5-2
		c-0.1-0.8-0.1-1.8,0-2.8C64.6,47,65,46,65.4,45c0.1-0.4,0.4-0.8,0.6-1.1c0.3-0.4,0.5-0.8,0.9-1c0.4-0.3,0.8-0.5,1.1-0.6
		s0.9-0.3,1.4-0.3c0.6,0,1.3,0.3,1.5,0.6c0.4,0.4,0.6,0.9,0.6,1.4c0.1,0.5,0,1.1-0.1,1.8c-0.1,0.6-0.4,1.3-0.8,1.8
		c-0.4,0.5-0.9,1-1.4,1.4c-0.6,0.4-1.1,0.6-1.9,0.6c0,0.4,0,0.9,0.1,1.5c0,0.6,0.3,1.1,0.4,1.6c0.3,0.5,0.5,0.9,0.9,1.3
		c0.4,0.4,0.9,0.4,1.5,0.4c0.3,0,0.6-0.4,1-0.8c0.4-0.5,0.8-1,1-1.6c0.4-0.6,0.6-1.3,0.9-1.9c0.3-0.6,0.5-1.1,0.5-1.4
		c0-0.1,0.1-0.1,0.1-0.1c0.1,0,0.1,0,0.3,0C74.3,48.3,74.5,48.3,74.5,48.3z M69.7,44c0,0-0.1,0-0.3,0.1c-0.1,0.1-0.3,0.3-0.5,0.5
		c-0.1,0.3-0.4,0.6-0.6,1.1c-0.3,0.5-0.4,1.3-0.6,2.1c0.3-0.1,0.6-0.4,1-0.6c0.4-0.3,0.8-0.6,1-1.1c0.3-0.4,0.4-0.8,0.5-1
		c0-0.3,0-0.5,0-0.6s-0.1-0.3-0.3-0.4C69.8,44,69.8,44,69.7,44z"/>
	<path d="M102.1,34.7c0.1,0.3,0.4,0.5,0.4,0.8c0.1,0.3,0.1,0.5,0.1,0.8s-0.1,0.5-0.4,0.8s-0.5,0.4-0.9,0.6c-0.4,0.3-0.9,0.3-1.4,0.1
		c-0.3,0-0.4,0-0.6-0.1c-0.1,0-0.3-0.1-0.5-0.3c-0.1-0.1-0.3-0.4-0.3-0.6c-0.1-0.6-0.6-1-1.6-1s-2.3,0.3-3.9,0.6
		c-1.8,0.4-3.8,0.9-6.2,1.5S81.9,39,79,39.6c-0.3,1.1-0.4,2.3-0.6,3.5c-0.3,1.3-0.4,2.4-0.5,3.7c-0.1,1.3-0.3,2.4-0.4,3.4
		c0,1.1,0,2,0,2.9c0.1,0.9,0.3,1.5,0.4,2c0.3,0.5,0.5,0.8,1,0.8c0.4,0,0.6-0.4,1-1c0.4-0.6,0.8-1.4,1.1-2.1c0.4-0.8,0.6-1.6,0.9-2.4
		c0.3-0.8,0.5-1.4,0.5-1.6c0.1-0.3,0.3-0.3,0.5-0.1c0,0,0.1,0,0.3,0.1c0.3,0.3,0.3,0.5,0.3,0.8s-0.1,0.6-0.3,1.1
		c-0.1,0.5-0.4,1.1-0.5,1.8c-0.3,0.6-0.5,1.3-0.8,2c-0.3,0.8-0.6,1.3-1,1.9c-0.4,0.5-0.8,1-1.3,1.4c-0.4,0.4-0.9,0.5-1.4,0.5
		s-1-0.4-1.5-0.8c-0.4-0.4-0.8-1.1-1.1-2c-0.4-0.9-0.6-2.3-0.8-4c-0.1-1.5-0.1-3.2,0-5c0.1-1.9,0.3-3.8,0.6-5.7
		c-2,0.3-3.8,0.4-5.2,0.1c-1.4-0.1-2.5-0.4-3.4-0.8s-1.6-0.9-2.1-1.4c-0.5-0.5-0.9-1-1.1-1.5c-0.4-0.9-0.4-1.1-0.4-1.5
		c0-0.4,0.1-0.6,0.4-1c0.3-0.3,0.5-0.5,0.8-0.8c0.4-0.1,0.8-0.3,1.1-0.3h0.4c0.3,0,0.4,0.1,0.6,0.3c0.1,0.1,0.3,0.3,0.1,0.5
		c0,0.5,0,1,0.3,1.6s0.5,1,1,1.4c0.5,0.4,1.1,0.8,2,1c0.9,0.3,1.9,0.4,3.2,0.4c0.4,0,0.8,0,1.1,0c0.4,0,0.9-0.1,1.3-0.1
		c0.3-1.3,0.5-2.5,0.8-3.7c0.3-1.1,0.5-2.1,0.8-3c0.1-0.4,0.4-0.5,0.8-0.5c0.3,0,0.6,0,1,0.1c0.4,0,0.9,0.3,1.3,0.6
		c0.3,0.1,0.4,0.4,0.4,0.6c0.1,0.3,0,0.5,0,0.8c-0.1,0.4-0.3,1-0.5,1.8c-0.1,0.8-0.4,1.6-0.5,2.6c1.3-0.3,2.6-0.6,3.9-1
		c1.3-0.4,2.6-0.8,4-1.1c1.3-0.4,2.5-0.8,3.8-1.1c1.3-0.4,2.3-0.6,3.3-1c1.5-0.4,2.6-0.5,3.7-0.5s1.8,0.1,2.4,0.4
		C101.2,33.9,101.7,34.3,102.1,34.7z"/>
	<path d="M91.1,48.3c0.3,0.3,0.3,0.5,0.3,0.8s-0.1,0.8-0.3,1.3s-0.3,1.1-0.5,1.6c-0.3,0.6-0.5,1.3-0.8,1.9c-0.3,0.6-0.6,1.1-1,1.6
		c-0.4,0.5-0.8,0.9-1.3,1.3c-0.5,0.4-0.9,0.5-1.4,0.4c-0.9,0-1.5-0.4-2-1c-0.5-0.6-0.9-1.5-1-2.6s-0.1-2.5,0-4.2
		c0.3-1.6,0.5-3.3,1.1-5.2c0.1-0.4,0.4-0.6,0.8-0.5c0.4,0,0.8,0,1.3,0.1s0.9,0.3,1.4,0.6c0.1,0.1,0.3,0.3,0.4,0.5s0.1,0.4,0,0.6
		c-0.1,0.4-0.1,0.9-0.4,1.4c-0.1,0.6-0.3,1.3-0.4,2c-0.1,0.8-0.3,1.4-0.4,2.1c-0.1,0.8-0.3,1.4-0.3,2c0,0.6,0,1.1,0,1.5
		c0.1,0.4,0.3,0.6,0.5,0.6c0.4,0,0.6-0.1,1-0.6s0.6-1,1-1.8c0.3-0.8,0.6-1.4,0.9-2.3c0.3-0.8,0.4-1.4,0.5-2c0-0.1,0.1-0.1,0.1-0.1
		c0.1,0,0.1,0,0.3,0C90.9,48.2,91,48.3,91.1,48.3z M86.6,43.1c-0.4,0-0.8-0.1-1-0.4c-0.3-0.3-0.4-0.5-0.4-0.8c0-0.3,0.3-0.4,0.5-0.6
		c0.3-0.1,0.6-0.1,1-0.1c0.4,0,0.8,0.1,1,0.4c0.3,0.3,0.4,0.5,0.4,0.8s-0.3,0.5-0.5,0.6C87.3,43.1,87,43.3,86.6,43.1z"/>
	<path d="M110.1,48.3c0.3,0.3,0.3,0.5,0.3,0.8s-0.1,0.5-0.3,0.8c-0.1,0.4-0.3,0.8-0.4,1.1c-0.1,0.4-0.3,0.9-0.5,1.3
		c-0.3,0.5-0.4,0.9-0.6,1.4c-0.8,1.5-1.5,2.8-2.3,3.9c-0.4,0.5-0.8,0.9-1.1,1.4c-0.4,0.4-0.8,0.9-1.3,1.1c-0.5,0.3-0.9,0.5-1.3,0.8
		c-0.4,0.1-0.9,0.3-1.3,0.1c-0.8-0.1-1.3-0.5-1.6-1.3c-0.4-0.8-0.6-1.5-0.8-2.4c-0.1-0.9-0.1-1.8-0.1-2.6s0.1-1.6,0.3-2
		c0.3-1.1,0.5-2.1,0.8-3.3c0.3-1,0.5-2,0.8-2.8c0.3-0.9,0.4-1.5,0.5-2.1c0.1-0.5,0-0.9-0.1-1.1c-0.1-0.1-0.4-0.1-0.5,0
		s-0.4,0.3-0.6,0.4c-0.3,0.1-0.4,0.4-0.6,0.6c-0.5,0.6-1,1.4-1.5,2.3c-0.5,0.9-0.9,1.8-1.3,2.6c-0.4,0.9-0.8,1.8-1,2.6
		c-0.3,0.9-0.5,1.5-0.8,2.1c0,0-0.1,0.1-0.1,0.3c-0.1,0.1-0.1,0.3-0.3,0.4c-0.1,0.1-0.3,0.3-0.5,0.4c-0.3,0.1-0.5,0.1-0.8,0.1
		c-0.5,0-0.9-0.1-1.1-0.4c-0.3-0.3-0.5-0.4-0.6-0.5c-0.4-0.6-0.6-1.5-0.6-2.5c0-1,0-2,0.3-3c0.1-1,0.4-1.9,0.6-2.8
		c0.3-0.9,0.5-1.5,0.6-1.9c0.1-0.3,0.4-0.4,0.8-0.5c0.4,0,0.8,0,1.3,0s1,0.1,1.4,0.4c0.4,0.3,0.6,0.6,0.5,1
		c-0.1,0.3-0.3,0.6-0.4,1.1c-0.1,0.5-0.3,1-0.4,1.5c-0.1,0.6-0.3,1.1-0.4,1.8c-0.1,0.6-0.3,1.3-0.4,1.9c0.3-0.9,0.8-1.9,1.1-3
		c0.5-1.1,1-2.1,1.6-3.2c0.6-1,1.4-1.9,2.1-2.5c0.8-0.6,1.5-1,2.4-1c0.8,0,1.3,0.3,1.8,0.5c0.5,0.3,0.8,0.8,0.9,1.1
		c0.1,0.5,0.3,1,0.4,1.6c0,0.6,0,1.1-0.1,1.8c-0.1,0.6-0.1,1.1-0.3,1.8c-0.1,0.5-0.3,1-0.3,1.4c-0.5,1.6-0.9,3-1.1,4.4
		c-0.1,0.5-0.3,1.1-0.4,1.6c-0.1,0.5-0.4,0.8-0.4,1.3s0,0.9,0,1.1c0,0.3,0.1,0.5,0.3,0.6c0.3,0.1,0.5,0,0.9-0.3
		c0.4-0.4,0.9-0.8,1.3-1.4c0.5-0.6,1-1.4,1.5-2.1c0.5-0.8,1-1.6,1.4-2.5c0.4-0.8,0.8-1.5,1-2.3c0.3-0.8,0.5-1.4,0.6-1.8
		c0.1-0.3,0.3-0.3,0.5-0.1C109.9,48.2,109.9,48.3,110.1,48.3z"/>
	<path d="M121.9,60c0,0.1,0,0.3,0.1,0.4c0,0.1,0.1,0.3,0.1,0.4c0,0.1,0,0.4,0,0.5c0,0.4-0.1,0.8-0.3,1.1c-0.3,0.4-0.5,0.5-1.1,0.6
		c-0.3,0-0.6,0-0.9-0.1c-0.3-0.1-0.4-0.3-0.5-0.4c-0.1-0.1-0.3-0.5-0.1-0.9c0-0.3,0-0.6,0-1s-0.3-0.6-0.4-0.9
		c-0.3-0.3-0.5-0.5-0.9-0.8c-0.4-0.3-0.9-0.4-1.4-0.5c-0.1,0.9-0.3,1.8-0.4,2.6c-0.1,0.9-0.5,2-0.8,3c-0.4,1.4-0.9,2.6-1.5,3.8
		c-0.6,1.1-1.3,2.3-2,3.3c-0.8,1-1.6,1.8-2.5,2.4c-1,0.6-1.9,1.1-3,1.3c-0.5,0.1-1,0.1-1.6,0.1c-0.6,0-1.3-0.1-2-0.4
		c-0.9-0.3-1.5-0.8-2.1-1.3c-0.5-0.5-0.9-1.3-1.1-2.1c-0.3-0.9-0.1-2.1,0.3-3.7c0.3-1.1,0.9-2.3,1.8-3.5c0.9-1.1,1.9-2.3,3.2-3.2
		c1.3-1,2.6-1.8,4.2-2.5c1.5-0.6,3.2-1.1,4.8-1.3c0.1-1,0.3-2,0.4-2.8c0.1-0.8,0-1.5,0-2.1s-0.1-1.1-0.3-1.6s-0.3-0.8-0.3-1.1
		c-0.3-0.6-0.1-1.1,0.3-1.5c0.5-0.6,0.8-1.3,0.8-1.8c0-0.3-0.1-0.4-0.1-0.5c-0.1-0.1-0.1-0.4-0.3-0.5c-0.1-0.1-0.3-0.3-0.4-0.4
		c-0.3,0-0.4,0-0.6,0c-0.3,0-0.4,0-0.6,0c0,0.9,0,1.8-0.3,2.5c-0.1,0.8-0.4,1.4-0.5,1.8c-0.1,0.3-0.4,0.5-0.6,0.5h-0.3
		c-0.3,0-0.4-0.1-0.3-0.4c0.1-0.5,0.4-1.1,0.5-2s0.1-1.6,0.1-2.5c-0.6-0.1-1.1-0.4-1.4-0.8c-0.3-0.4-0.4-0.8-0.4-1.3
		c0-0.5,0.1-0.9,0.3-1.3c0.1-0.4,0.4-0.6,0.5-0.8c0.1,0,0.1,0,0.3-0.1c0.1,0,0.1,0,0.3-0.1c0.1-0.1,0.3,0,0.4,0
		c0.3,0,0.4,0.1,0.5,0.3c0.1,0.1,0.3,0.3,0.3,0.5c0.1,0.1,0.1,0.4,0.1,0.5s0,0.3,0.1,0.4c0.1,0.3,0.4,0.5,0.6,0.9
		c0.3,0.4,0.9,0.6,1.5,0.9c0,0,0.3,0.1,0.5,0.3c0.3,0.1,0.5,0.3,0.9,0.5c0.3,0.1,0.5,0.3,0.6,0.4c0.3,0.1,0.4,0.4,0.6,0.5
		c0.1,0.3,0.3,0.5,0.4,0.8s0,0.6,0,1.1c-0.1,0.3-0.1,0.5-0.3,0.9c-0.1,0.3-0.3,0.5-0.5,0.8c-0.1,0.3-0.5,0.5-0.8,0.6
		c0.4,0.5,0.6,1.1,0.9,1.9c0.3,0.6,0.4,1.5,0.5,2.5c0.1,1,0.1,2.1,0.1,3.5c0.5,0,1,0.1,1.5,0.3c0.5,0.1,1,0.3,1.5,0.5
		c0.5,0.3,1,0.5,1.4,0.9C121.4,59.2,121.7,59.5,121.9,60z M102.4,72.7c1,0.4,2,0.5,2.9,0c0.9-0.4,1.8-1,2.5-1.9
		c0.8-0.9,1.5-2,2.1-3.3c0.6-1.3,1.1-2.5,1.6-3.8c0.6-1.9,1.1-3.7,1.5-5.2c-1,0.3-1.9,0.5-3,0.9c-1,0.4-2,0.9-3,1.5
		c-1,0.6-1.9,1.4-2.8,2.1c-0.9,0.9-1.5,1.8-2.1,2.6c-0.3,0.4-0.4,0.8-0.5,1.1s-0.3,0.8-0.4,1.1s-0.3,0.9-0.3,1.3
		c0,0.6,0,1.3,0.1,1.9C101.3,71.9,101.7,72.4,102.4,72.7z"/>
</g>
</svg>
